<svg xmlns="http://www.w3.org/2000/svg" width="17" height="20" id="notification">
  <path fill-rule="evenodd" d="M12.75 14h-8.5V8c0-2.666 2.125-4 4.249-4h.002c2.124 0 4.249 1.334 4.249 4v6zm-3.188 3c0 .552-.476 1-1.062 1-.587 0-1.063-.448-1.063-1v-1h2.125v1zm6.375-3c-.586 0-1.062-.448-1.062-1V8c0-3.553-2.516-5.525-5.313-5.921V1c0-.552-.476-1-1.062-1-.587 0-1.063.448-1.063 1v1.079C4.641 2.475 2.125 4.447 2.125 8v5c0 .552-.476 1-1.063 1C.476 14 0 14.448 0 15s.476 1 1.063 1h4.25v1c0 1.657 1.426 3 3.187 3 1.76 0 3.188-1.343 3.188-3v-1h4.25c.586 0 1.062-.448 1.062-1s-.476-1-1.063-1z"></path>
</svg>
